<svg id="visual" viewBox="0 0 900 600" width="900" height="600" xmlns="http://www.w3.org/2000/svg" xmlns:xlink="http://www.w3.org/1999/xlink" version="1.1"><g transform="translate(479.1172267110336 293.9218396072114)"><path d="M141.2 -248C182 -220.9 213.6 -181.2 236 -137.8C258.4 -94.3 271.7 -47.2 268.8 -1.7C265.9 43.8 246.8 87.7 228.4 138C210 188.4 192.3 245.3 154.3 271.9C116.3 298.5 58.2 294.7 5.7 284.9C-46.8 275.1 -93.7 259.2 -125.9 229.3C-158 199.4 -175.6 155.5 -214.7 114.9C-253.7 74.3 -314.4 37.2 -325.5 -6.4C-336.6 -50 -298.2 -100 -251.3 -127.1C-204.5 -154.1 -149.1 -158.3 -105.8 -183.9C-62.5 -209.6 -31.3 -256.8 9.5 -273.2C50.2 -289.6 100.3 -275.1 141.2 -248" fill="#e8678f"></path></g></svg>